<?xml version="1.0" encoding="utf-8"?>
<!-- Generator: Adobe Illustrator 26.0.1, SVG Export Plug-In . SVG Version: 6.00 Build 0)  -->
<svg version="1.1" id="Layer_2" xmlns="http://www.w3.org/2000/svg" xmlns:xlink="http://www.w3.org/1999/xlink" x="0px" y="0px"
	 viewBox="0 0 96 96" style="enable-background:new 0 0 96 96;" xml:space="preserve">
<style type="text/css">
	.st0{fill:#FFFFFF;}
</style>
<path class="st0" d="M8.28,18.89c0-0.31,0-0.63,0-1.18c0.39,0.37,0.64,0.59,0.88,0.82C19.7,29.07,30.24,39.62,40.78,50.16
	c3.27,3.26,7.52,4.14,11.41,2.2c1.15-0.57,2.22-1.43,3.14-2.34c10.51-10.45,20.98-20.94,31.45-31.43c0.24-0.25,0.43-0.55,0.65-0.82
	c0.1,0.06,0.19,0.12,0.29,0.18c0,0.34,0,0.69,0,1.03c0,18.34,0,36.68,0,55.02H93c0-18.97,0-37.94,0-56.92
	c-0.3-0.94-0.49-1.93-0.93-2.81c-1.79-3.64-4.76-5.56-8.82-5.62C78.1,8.6,72.95,8.65,67.79,8.65c-18.22,0-36.44,0-54.66,0
	c-4.92,0-8.77,2.91-9.85,7.5c-0.19,0.82-0.26,1.68-0.26,2.52C3,37.11,3,55.56,3.01,74h5.27C8.27,55.63,8.28,37.26,8.28,18.89z
	 M83.87,13.98c-0.28,0.31-0.46,0.53-0.66,0.72C72.63,25.28,62.05,35.86,51.47,46.44c-2.21,2.21-4.72,2.21-6.93,0
	C33.95,35.86,23.37,25.28,12.79,14.7c-0.2-0.2-0.38-0.41-0.66-0.72C36.1,13.98,59.91,13.98,83.87,13.98z"/>
</svg>
