<?xml version="1.0" encoding="utf-8"?>
<!-- Generator: Adobe Illustrator 26.0.1, SVG Export Plug-In . SVG Version: 6.00 Build 0)  -->
<svg version="1.1" id="Layer_2_00000002358313528640854470000008289869030110076089_"
	 xmlns="http://www.w3.org/2000/svg" xmlns:xlink="http://www.w3.org/1999/xlink" x="0px" y="0px" viewBox="0 0 96 96"
	 style="enable-background:new 0 0 96 96;" xml:space="preserve">
<style type="text/css">
	.st0{fill:#FFFFFF;}
</style>
<path class="st0" d="M17.97,54.4c0-2.63-0.89-3.51-3.55-3.51c-1,0-1.99,0-2.99,0c-1.34,0-2.33-0.6-2.86-1.81
	c-0.55-1.26-0.27-2.42,0.69-3.39c1.44-1.46,2.9-2.9,4.35-4.36C24.23,30.71,34.84,20.09,45.46,9.47c1.84-1.84,3.38-1.85,5.21-0.03
	C62.6,21.37,74.52,33.3,86.46,45.22c0.99,0.99,1.7,2.03,1.26,3.5c-0.38,1.28-1.45,2.13-2.78,2.16c-1.23,0.03-2.46,0-3.7,0.01
	c-1.99,0.01-3.05,1.06-3.05,3.04c0,6.69,0,13.38,0,20.07h5.28c0-5.54,0-11.08,0-16.63c0-0.35,0-0.7,0-1.21c0.59,0,1.08,0.01,1.57,0
	c1.44-0.02,2.76-0.43,4.01-1.14c4.71-2.64,5.21-9.54,1.46-13.25c-12.11-11.98-24.18-24-36.13-36.15c-3.35-3.41-9.34-3.42-12.63,0.02
	c-6.37,6.65-12.98,13.06-19.49,19.57c-5.56,5.56-11.13,11.1-16.67,16.68c-2.58,2.61-3.26,5.71-1.93,9.14
	c1.25,3.21,4.27,5.12,7.89,5.14c0.37,0,0.73,0,1.14,0c0,0.5,0,0.85,0,1.2c0,5.54,0,11.08,0,16.63h5.29
	C18,67.47,17.97,60.93,17.97,54.4z"/>
</svg>
