<?xml version="1.0" encoding="utf-8"?>
<!-- Generator: Adobe Illustrator 26.0.1, SVG Export Plug-In . SVG Version: 6.00 Build 0)  -->
<svg version="1.1" id="Layer_2_00000093152483630003226960000010409067907583792516_"
	 xmlns="http://www.w3.org/2000/svg" xmlns:xlink="http://www.w3.org/1999/xlink" x="0px" y="0px" viewBox="0 0 96 96"
	 style="enable-background:new 0 0 96 96;" xml:space="preserve">
<style type="text/css">
	.st0{fill:#FFFFFF;}
</style>
<g>
	<path class="st0" d="M22.6,39.73c1.81,0,3.63-0.01,5.44,0c1.69,0.01,2.8,1.02,2.81,2.7c0.04,3.72,0.04,7.43,0,11.15
		c-0.02,1.68-1.12,2.69-2.81,2.7c-3.66,0.01-7.31,0.01-10.97,0c-1.65-0.01-2.77-1.08-2.78-2.74c-0.03-3.69-0.03-7.37,0-11.06
		c0.01-1.66,1.12-2.73,2.78-2.74C18.91,39.71,20.76,39.73,22.6,39.73z M25.53,50.97c0-2.03,0-3.98,0-5.91c-2.01,0-3.96,0-5.91,0
		c0,2,0,3.95,0,5.91C21.61,50.97,23.54,50.97,25.53,50.97z"/>
	<path class="st0" d="M78.85,39.73c2.01,0,3.31,1.65,2.71,3.44c-0.36,1.08-1.16,1.65-2.27,1.81C79.09,45.01,52.84,45,39.92,45
		c-1.66,0-2.8-0.87-3-2.25c-0.23-1.66,0.97-3.01,2.73-3.02C44.31,39.72,72.34,39.72,78.85,39.73z"/>
	<path class="st0" d="M79.11,51.01c1.48,0.09,2.63,1.28,2.6,2.68c-0.03,1.44-1.17,2.57-2.69,2.58c-2.9,0.02-29.03,0.01-39.19,0.01
		c-1.64,0-2.77-0.91-2.91-2.32c-0.17-1.67,1.03-2.94,2.83-2.95C44.52,50.99,78.85,50.99,79.11,51.01z"/>
	<path class="st0" d="M77.81,62.49c2.22,0.09,3.94,1.28,3.9,2.68c-0.05,1.44-1.76,2.57-4.03,2.58c-4.35,0.02-43.53,0.01-58.77,0.01
		c-2.46,0-4.15-0.91-4.37-2.32c-0.26-1.67,1.55-2.94,4.24-2.95C25.94,62.47,77.42,62.47,77.81,62.49z"/>
	<path class="st0" d="M48.02,19.56c-6.44,0-12.89,0.01-19.33-0.01c-0.54,0-1.12-0.08-1.62-0.28c-1.01-0.42-1.55-1.48-1.45-2.58
		c0.1-1.09,0.83-1.99,1.91-2.26c0.42-0.11,0.87-0.13,1.3-0.13c12.77-0.01,25.54-0.01,38.3,0c0.32,0,0.65-0.01,0.96,0.04
		c1.43,0.23,2.36,1.37,2.28,2.77c-0.08,1.39-1.15,2.43-2.6,2.45c-1.96,0.03-3.92,0.01-5.89,0.01
		C57.27,19.56,52.64,19.56,48.02,19.56z"/>
	<path class="st0" d="M8.27,31.79c0-0.26,0-0.52,0-0.89c26.52,0,52.93,0,79.45,0c0,0.35,0,0.66,0,0.97c0,13.16,0,26.32,0,39.48
		c0,1.46,1.18,2.64,2.64,2.64l0,0c1.46,0,2.64-1.18,2.64-2.64V11.44c-0.28-0.88-0.47-1.8-0.85-2.64c-1.42-3.11-3.83-5-7.2-5.64
		c-0.14-0.03-0.26-0.1-0.39-0.16C60.19,3,35.81,3,11.44,3c-1.27,0.48-2.63,0.81-3.79,1.48c-2.48,1.43-3.93,3.67-4.48,6.48
		C3.13,11.12,3.06,11.28,3,11.44v59.93C3,72.82,4.18,74,5.64,74l0,0c1.46,0,2.64-1.18,2.64-2.64C8.27,58.17,8.27,44.98,8.27,31.79z
		 M8.32,12.28c0.05-2.18,1.99-3.9,4.18-4c0.29-0.01,0.59-0.01,0.88-0.01c23.08,0,46.17,0,69.25,0c3.37,0,5.1,1.72,5.1,5.06
		c0,4.04,0,8.08,0,12.19c-26.48,0-52.91,0-79.44,0C8.29,21.07,8.22,16.67,8.32,12.28z"/>
</g>
</svg>
