<?xml version="1.0" encoding="utf-8"?>
<!-- Generator: Adobe Illustrator 26.0.1, SVG Export Plug-In . SVG Version: 6.00 Build 0)  -->
<svg version="1.1" id="Layer_2_00000093152483630003226960000010409067907583792516_"
	 xmlns="http://www.w3.org/2000/svg" xmlns:xlink="http://www.w3.org/1999/xlink" x="0px" y="0px" viewBox="0 0 96 96"
	 style="enable-background:new 0 0 96 96;" xml:space="preserve">
<style type="text/css">
	.st0{fill:#FFFFFF;}
</style>
<path class="st0" d="M45.61,50.67c0-0.84,0.03-1.68-0.01-2.52c-0.07-1.58-0.93-2.45-2.5-2.51c-0.84-0.04-1.68,0.03-2.51-0.03
	c-2.49-0.16-4.42-2.22-4.44-4.68c-0.02-2.53,1.94-4.7,4.51-4.75c4.19-0.08,8.39-0.11,12.58,0.02c3.69,0.12,6.56,3.27,6.58,7.06
	c0.04,6.21,0.01,12.43,0.01,18.65c0,4.03,0.03,8.06,0.01,12.09h4.7c0.07-10.43,0.06-20.86-0.03-31.29
	c-0.06-6.04-5.18-11.07-11.21-11.25c-4.29-0.12-8.59-0.11-12.87-0.01c-4.93,0.12-8.92,4.3-9.01,9.22c-0.09,5.24,3.54,9.05,9.47,9.77
	c0,0.64,0,1.18,0,1.72c0,7.28,0,14.56,0,21.84h4.74C45.61,66.22,45.61,58.45,45.61,50.67z"/>
<path class="st0" d="M52.57,26.68c6.56,0.05,11.92-5.21,11.98-11.74C64.61,8.46,59.37,3.08,52.93,3
	c-6.57-0.08-11.98,5.16-12.05,11.66C40.81,21.23,46.06,26.63,52.57,26.68z M52.72,7.74c3.85-0.02,7.08,3.17,7.1,7.02
	c0.02,3.95-3.17,7.17-7.1,7.17c-3.93,0-7.13-3.24-7.1-7.17C45.65,10.9,48.83,7.76,52.72,7.74z"/>
</svg>
