<?xml version="1.0" encoding="UTF-8" standalone="no"?>
<!-- Created with Inkscape (http://www.inkscape.org/) -->

<svg
   width="50.0px"
   height="50.0px"
   viewBox="0 0 50.0 50.0"
   version="1.1"
   id="SVGRoot"
   sodipodi:docname="infojobs.svg"
   inkscape:version="1.2.1 (9c6d41e410, 2022-07-14)"
   xmlns:inkscape="http://www.inkscape.org/namespaces/inkscape"
   xmlns:sodipodi="http://sodipodi.sourceforge.net/DTD/sodipodi-0.dtd"
   xmlns="http://www.w3.org/2000/svg"
   xmlns:svg="http://www.w3.org/2000/svg">
  <sodipodi:namedview
     id="namedview631"
     pagecolor="#ffffff"
     bordercolor="#000000"
     borderopacity="0.25"
     inkscape:showpageshadow="2"
     inkscape:pageopacity="0.0"
     inkscape:pagecheckerboard="0"
     inkscape:deskcolor="#d1d1d1"
     inkscape:document-units="px"
     showgrid="true"
     inkscape:zoom="4.2179991"
     inkscape:cx="67.211963"
     inkscape:cy="22.522527"
     inkscape:window-width="1920"
     inkscape:window-height="1017"
     inkscape:window-x="1912"
     inkscape:window-y="-8"
     inkscape:window-maximized="1"
     inkscape:current-layer="layer1">
    <inkscape:grid
       type="xygrid"
       id="grid754" />
  </sodipodi:namedview>
  <defs
     id="defs626" />
  <g
     inkscape:label="Capa 1"
     inkscape:groupmode="layer"
     id="layer1">
    <path
       d="m 32.211027,10.973288 c 0,0 -4.587855,25.9206 -4.664451,26.456766 -0.15319,0.993774 -0.765951,1.376749 -2.293926,1.679202 -1.07037,0.229785 -1.989513,0.30638 -3.823869,0.229785 -3.211106,-0.0766 -8.40976,-0.993773 -11.239852,-1.910951 l -1.6831319,9.099118 c 3.1345129,1.146962 8.4117229,2.217332 14.0699509,2.140737 6.194389,0 11.622826,-2.064143 13.765528,-5.196691 1.527976,-2.140739 2.064142,-5.734817 2.140736,-6.270986 0,-0.07659 4.434668,-26.22698 4.434668,-26.22698 z"
       style="fill:#ffffff;stroke-width:0.151429"
       id="path454" />
    <path
       d="m 14.470333,2.3643799 h 9.78055 L 18.286348,35.935366 H 8.5057959 Z"
       style="fill:#ffffff;stroke-width:0.13736"
       id="path479" />
  </g>
</svg>
