<?xml version="1.0" encoding="UTF-8" standalone="no"?>
<!-- Created with Inkscape (http://www.inkscape.org/) -->

<svg
   width="50.0px"
   height="50.0px"
   viewBox="0 0 50.0 50.0"
   version="1.1"
   id="SVGRoot"
   sodipodi:docname="instagram.svg"
   inkscape:version="1.2.1 (9c6d41e410, 2022-07-14)"
   xml:space="preserve"
   inkscape:export-filename="instagram.png"
   inkscape:export-xdpi="96"
   inkscape:export-ydpi="96"
   xmlns:inkscape="http://www.inkscape.org/namespaces/inkscape"
   xmlns:sodipodi="http://sodipodi.sourceforge.net/DTD/sodipodi-0.dtd"
   xmlns="http://www.w3.org/2000/svg"
   xmlns:svg="http://www.w3.org/2000/svg"><sodipodi:namedview
     id="namedview631"
     pagecolor="#5b5b5b"
     bordercolor="#000000"
     borderopacity="0.25"
     inkscape:showpageshadow="2"
     inkscape:pageopacity="0"
     inkscape:pagecheckerboard="0"
     inkscape:deskcolor="#d1d1d1"
     inkscape:document-units="px"
     showgrid="true"
     inkscape:zoom="11.930303"
     inkscape:cx="41.407163"
     inkscape:cy="20.955042"
     inkscape:window-width="1920"
     inkscape:window-height="1017"
     inkscape:window-x="1912"
     inkscape:window-y="-8"
     inkscape:window-maximized="1"
     inkscape:current-layer="g1869"><inkscape:grid
       type="xygrid"
       id="grid754" /></sodipodi:namedview><defs
     id="defs626" /><g
     id="g1869"><path
       d="M 15.181818,1 C 7.36,1 1,7.3599998 1,15.181818 V 34.818182 C 1,42.64 7.36,49 15.181818,49 H 34.818182 C 42.64,49 49,42.64 49,34.818182 V 15.181818 C 49,7.3599998 42.64,1 34.818182,1 Z m 22.909091,8.7272727 c 1.2,0 2.181818,0.9818183 2.181818,2.1818183 0,1.2 -0.981818,2.181818 -2.181818,2.181818 -1.2,0 -2.181818,-0.981818 -2.181818,-2.181818 0,-1.2 0.981818,-2.1818183 2.181818,-2.1818183 z M 25,11.742697 C 32.31562,11.742697 38.257303,17.68438 38.257303,25 38.257303,32.31562 32.31562,38.257303 25,38.257303 17.68438,38.257303 11.742697,32.31562 11.742697,25 11.742697,17.68438 17.68438,11.742697 25,11.742697 Z"
       id="path2134"
       style="font-family:none;mix-blend-mode:normal;fill:#ffffff;fill-rule:nonzero;stroke:none;stroke-width:1.09091;stroke-linecap:butt;stroke-linejoin:miter;stroke-miterlimit:10;stroke-dasharray:none;stroke-dashoffset:0"
       sodipodi:nodetypes="sssssssssssssssssss" /></g><path
     d="m 25,16 c -4.96,0 -9,4.04 -9,9 0,4.96 4.04,9 9,9 4.96,0 9,-4.04 9,-9 0,-4.96 -4.04,-9 -9,-9 z"
     style="font-family:none;mix-blend-mode:normal;fill:#ffffff;fill-rule:nonzero;stroke:none;stroke-width:1;stroke-linecap:butt;stroke-linejoin:miter;stroke-miterlimit:10;stroke-dasharray:none;stroke-dashoffset:0"
     id="path1847" /></svg>
