<?xml version="1.0" encoding="UTF-8" standalone="no"?>
<!-- Created with Inkscape (http://www.inkscape.org/) -->

<svg
   width="50.0px"
   height="50.0px"
   viewBox="0 0 50.0 50.0"
   version="1.1"
   id="SVGRoot"
   sodipodi:docname="kofi.svg"
   inkscape:version="1.2.1 (9c6d41e410, 2022-07-14)"
   xml:space="preserve"
   xmlns:inkscape="http://www.inkscape.org/namespaces/inkscape"
   xmlns:sodipodi="http://sodipodi.sourceforge.net/DTD/sodipodi-0.dtd"
   xmlns="http://www.w3.org/2000/svg"
   xmlns:svg="http://www.w3.org/2000/svg"><sodipodi:namedview
     id="namedview631"
     pagecolor="#5b5b5b"
     bordercolor="#000000"
     borderopacity="0.25"
     inkscape:showpageshadow="2"
     inkscape:pageopacity="0"
     inkscape:pagecheckerboard="0"
     inkscape:deskcolor="#d1d1d1"
     inkscape:document-units="px"
     showgrid="true"
     inkscape:zoom="11.930303"
     inkscape:cx="41.407163"
     inkscape:cy="20.955042"
     inkscape:window-width="1920"
     inkscape:window-height="1017"
     inkscape:window-x="1912"
     inkscape:window-y="-8"
     inkscape:window-maximized="1"
     inkscape:current-layer="SVGRoot"><inkscape:grid
       type="xygrid"
       id="grid754" /></sodipodi:namedview><defs
     id="defs626" /><g
     inkscape:groupmode="layer"
     id="layer1"
     inkscape:label="Layer 1"><g
       style="fill:#ffffff;fill-opacity:1"
       id="g433"
       transform="matrix(1.9999738,0,0,1.9999738,0.99990944,0.99831424)"><path
         d="M 23.881,8.948 C 23.108,4.863 19.022,4.355 19.022,4.355 H 0.723 c -0.604,0 -0.679,0.798 -0.679,0.798 0,0 -0.082,7.324 -0.022,11.822 0.164,2.424 2.586,2.672 2.586,2.672 0,0 8.267,-0.023 11.966,-0.049 2.438,-0.426 2.683,-2.566 2.658,-3.734 4.352,0.24 7.422,-2.831 6.649,-6.916 z m -11.062,3.511 c -1.246,1.453 -4.011,3.976 -4.011,3.976 0,0 -0.121,0.119 -0.31,0.023 C 8.422,16.401 8.39,16.368 8.39,16.368 7.947,15.927 5.022,13.319 4.356,12.414 3.647,11.449 3.315,9.714 4.265,8.704 5.216,7.694 7.27,7.618 8.628,9.111 c 0,0 1.565,-1.782 3.468,-0.963 1.904,0.82 1.832,3.011 0.723,4.311 z m 6.173,0.478 c -0.928,0.116 -1.682,0.028 -1.682,0.028 V 7.284 h 1.77 c 0,0 1.971,0.551 1.971,2.638 0,1.913 -0.985,2.667 -2.059,3.015 z"
         id="path424"
         style="fill:#ffffff;fill-opacity:1" /></g></g></svg>
