<svg xmlns="http://www.w3.org/2000/svg" xmlns:xlink="http://www.w3.org/1999/xlink" viewBox="0,0,256,256" width="50px" height="50px" fill-rule="nonzero"><g fill="#ffffff" fill-rule="nonzero" stroke="none" stroke-width="1" stroke-linecap="butt" stroke-linejoin="miter" stroke-miterlimit="10" stroke-dasharray="" stroke-dashoffset="0" font-family="none" font-weight="none" font-size="none" text-anchor="none" style="mix-blend-mode: normal"><g transform="scale(5.12,5.12)"><path d="M25,2c-12.6907,0 -23,10.3093 -23,23c0,12.69071 10.3093,23 23,23c12.69071,0 23,-10.30929 23,-23c0,-12.6907 -10.30929,-23 -23,-23zM25,4c11.60982,0 21,9.39018 21,21c0,11.60982 -9.39018,21 -21,21c-11.60982,0 -21,-9.39018 -21,-21c0,-11.60982 9.39018,-21 21,-21zM25,11.82031l-10.63281,6.66406l10.63281,6.66406l0.53125,-0.33203l10.10156,-6.33203zM25,14.17969l6.86719,4.30469l-6.86719,4.30469l-6.86719,-4.30469zM14,20.66406v11.89063l10,6.25v-11.68164l-0.45703,-0.29687zM36,20.66406l-10,6.45898v0.54492v11.13672l10,-6.25zM16,24.33594l6,3.87695v6.98242l-6,-3.75zM34,24.33594v7.10937l-6,3.75v-6.98242z"></path></g></g></svg>