<?xml version="1.0" encoding="UTF-8" standalone="no"?>
<svg viewBox="0 0 540 540" xmlns="http://www.w3.org/2000/svg">
  <defs>
    <!-- Definición del patrón -->
	<pattern id="patt1Globalpatt" xlink:href="#patt1Subpatt" />
    <pattern id="patt1Subpatt" width="540" height="540" patternUnits="userSpaceOnUse">
      <!-- Contenido del patrón -->
      <g id="patt1BaseBlock">
		  <g id="patt1BaseBlock1">
			  <g id="patt1Block" transform="matrix(4.164866,0,0,-4.1648721,8.1879546e-4,-1.3388831e-6)">
				<!-- Rutas para el patrón -->
				<path d="M 5.1846239e-4,3.5856316e-7 V 135.46667 H 0.00103907 V 3.5856316e-7 Z m 5.2060761e-4,0 C 74.775827,3.5856316e-7 135.44455,60.581188 135.46667,135.42584 V 3.5856316e-7 Z" class="patternClr_primaryA" transform="matrix(0.24010377,0,0,-0.24010341,-1.97e-4,-3.214704e-7)" />
				<path d="m 0,0 v -65.052 c 17.957,0 32.526,14.57 32.526,32.526 C 32.526,-14.551 17.957,0 0,0" class="patternClr_secondaryA" />
				<path d="m 38.267333,270.93325 c 38.996249,0 76.647377,0.003 97.199487,0.003 v 4.9e-4 l -1.6e-4,-3.2e-4 2.3e-4,-135.46814 C 79.943973,149.00987 34.906302,208.19211 38.267333,270.93325 Z" class="patternClr_primaryA" sodipodi:nodetypes="cccccc" transform="matrix(0.24010377,0,0,-0.24010342,-1.97e-4,-3.214704e-7)" />
				<g id="grpPathExRgt" transform="translate(32.525915)">
				  <path d="m 0,0 c -14.168,-4.17 -23.365,-17.137 -23.347,-31.215 0,-0.436 0,-0.874 0.018,-1.31 h -9.197 C -32.526,-14.551 -17.957,0 0,0" class="patternClr_primaryB" transform="translate(-2.4944796e-7,-32.526398)" />
				  <path d="M -4.7400525e-4,-32.525945 C -4.170481,-18.357966 -17.137498,-9.1609803 -31.215522,-9.1789784 c -0.436002,0 -0.874002,0 -1.310004,-0.018008 V -3.2147307e-7 C -14.551494,6.8816292e-6 -4.7400525e-4,-14.568971 -4.7400525e-4,-32.525945" class="patternClr_secondaryB" />
				</g>
			  </g>
			  <use href="#patt1Block" x="-270" y="-270" transform="matrix(-1 0 0 -1 0 0)"></use>
		  </g>
		  <use href="#patt1BaseBlock1" x="-270" y="270" transform="matrix(-1 0 0 1 0 0)"></use>
	  </g>
	  <use href="#patt1BaseBlock" x="-540" y="-540" transform="matrix(-1 0 0 -1 0 0)"></use>	  
    </pattern>
  </defs>
  <!-- Rectángulo izquierdo que utiliza el patrón -->
  <rect fill="url(#patt1Globalpatt)" x="0" y="0" width="100%" height="100%"></rect>
</svg>
